<?xml version="1.0" encoding="UTF-8" standalone="no"?>
<!-- Created with Inkscape (http://www.inkscape.org/) -->

<svg
   width="1in"
   height="1in"
   viewBox="0 0 25.4 25.4"
   version="1.1"
   id="svg1"
   xml:space="preserve"
   inkscape:version="1.3.2 (091e20e, 2023-11-25, custom)"
   sodipodi:docname="space_ship_inkscape2.svg"
   xmlns:inkscape="http://www.inkscape.org/namespaces/inkscape"
   xmlns:sodipodi="http://sodipodi.sourceforge.net/DTD/sodipodi-0.dtd"
   xmlns="http://www.w3.org/2000/svg"
   xmlns:svg="http://www.w3.org/2000/svg"><sodipodi:namedview
     id="namedview1"
     pagecolor="#4f4f4f"
     bordercolor="#eeeeee"
     borderopacity="1"
     inkscape:showpageshadow="false"
     inkscape:pageopacity="0.0"
     inkscape:pagecheckerboard="0"
     inkscape:deskcolor="#4f4f4f"
     inkscape:document-units="in"
     inkscape:zoom="1.9578167"
     inkscape:cx="29.36945"
     inkscape:cy="119.77628"
     inkscape:window-width="2560"
     inkscape:window-height="1377"
     inkscape:window-x="-8"
     inkscape:window-y="-8"
     inkscape:window-maximized="1"
     inkscape:current-layer="layer1" /><defs
     id="defs1" /><g
     inkscape:label="Layer 1"
     inkscape:groupmode="layer"
     id="layer1"
     transform="matrix(0.36184575,0,0,0.35902882,-25.396696,-40.257518)"><path
       style="display:inline;fill:#00ff00;stroke:#000000;stroke-width:0.665001"
       d="m 70.523165,167.22973 0.191119,-10.32046 1.33784,-1.72008 -0.382241,-4.01352 3.822395,-4.01351 4.969111,5.16023 v 2.10232 l 13.378378,-7.64479 8.218143,-31.53475 3.05792,-2.67567 4.20463,3.63127 7.07143,30.77027 12.99614,8.21815 1.33784,-4.20464 3.63127,-3.44015 4.39575,5.73359 v 2.48456 l 0.9556,0.57336 -0.19112,12.80501 -23.3166,7.26255 -4.20463,5.35136 -12.996141,-0.19113 -4.969113,-4.58687 z"
       id="path1"
       inkscape:label="main" /><path
       style="fill:#ff9003;fill-opacity:1;stroke:#000000;stroke-width:0.665001"
       d="m 105.11583,123.84556 -3.63127,4.77799 0.38223,4.58687 3.63128,2.48456 3.44015,-3.05791 v -5.16024 z"
       id="path2"
       inkscape:label="pilot" /><path
       style="fill:#ff9003;fill-opacity:1;stroke:#000000;stroke-width:0.665001"
       d="m 118.30309,160.34942 -3.05792,1.72007 0.57336,3.05792 2.67568,2.10232 2.10231,-1.52896 v -3.63128 z"
       id="path3"
       inkscape:label="right_first" /><path
       style="fill:#ff9003;fill-opacity:1;stroke:#000000;stroke-width:0.665001;stroke-opacity:1"
       d="m 92.11969,160.34942 -2.675676,1.9112 v 3.44015 l 2.102318,1.33784 3.440152,-1.14672 -0.573357,-4.01351 z"
       id="path4"
       inkscape:label="left_first" /><path
       style="fill:#ff9003;fill-opacity:1;stroke:#000000;stroke-width:0.665001"
       d="m 105.30695,149.83784 -2.29344,3.24903 v 5.73359 l 2.48456,2.48456 2.10231,-2.67568 -0.19112,-6.68919 z"
       id="path5"
       inkscape:label="back_middle" /><path
       style="fill:#ff9003;fill-opacity:1;stroke:#000000;stroke-width:0.665001"
       d="m 125.1834,162.26062 -1.52896,1.33783 v 3.05792 l 1.72007,0.76448 1.72008,-1.72008 v -2.29344 z"
       id="path6"
       inkscape:label="right_second" /><path
       style="fill:#ff9003;fill-opacity:1;stroke:#000000;stroke-width:0.665001"
       d="m 84.666023,162.26062 -1.911197,1.72007 v 2.67568 l 1.911197,0.57336 1.911196,-1.52896 -0.191119,-2.48456 z"
       id="path7"
       inkscape:label="left_second" /></g></svg>
